<svg xmlns="http://www.w3.org/2000/svg" xmlns:xlink="http://www.w3.org/1999/xlink" preserveAspectRatio="xMidYMid meet" version="1.0" viewBox="0.0 0.0 1133.2 1156.6" zoomAndPan="magnify" style="fill: rgb(0, 0, 0);" original_string_length="6598"><g id="__id130_sww3fqcuhv" style="fill: rgb(2, 87, 155);"><path d="M 539.007812 464.46875 L 539.007812 368.730469 L 423.078125 368.730469 C 413.46875 397.4375 404.308594 429.6875 397.074219 464.46875 L 539.007812 464.46875" style="fill: inherit;"/><path d="M 410.253906 261.226562 C 378.339844 276.433594 349.070312 296.199219 323.28125 319.636719 L 385.871094 319.636719 C 394.382812 297.097656 402.785156 277.449219 410.253906 261.226562" style="fill: inherit;"/><path d="M 260.210938 493.925781 C 260.210938 477.722656 273.652344 464.46875 290.078125 464.46875 L 344.421875 464.46875 C 345.113281 460.933594 345.820312 457.398438 346.5625 453.855469 C 352.949219 423.328125 360.675781 394.785156 368.878906 368.730469 L 278.441406 368.730469 C 239.503906 420.324219 214.527344 482.734375 209.074219 550.484375 L 260.210938 550.648438 L 260.210938 493.925781" style="fill: inherit;"/><path d="M 300.988281 815.5 C 328.578125 845.390625 361.3125 870.578125 397.777344 889.730469 C 385.023438 865.75 374.011719 840.996094 364.828125 815.5 L 300.988281 815.5" style="fill: inherit;"/><path d="M 335.355469 693.625 C 334.566406 687.640625 333.890625 681.621094 333.273438 675.578125 L 290.078125 675.578125 C 273.652344 675.578125 260.210938 662.320312 260.210938 646.121094 L 260.210938 599.742188 L 208.585938 599.578125 C 212.238281 660.636719 231.726562 717.558594 263.0625 766.402344 L 349.617188 766.402344 C 343.40625 742.683594 338.625 718.417969 335.355469 693.625" style="fill: inherit;"/><path d="M 807.011719 319.636719 C 779.972656 295.0625 749.09375 274.546875 715.371094 259.070312 C 722.761719 276.054688 730.976562 296.417969 739.199219 319.636719 L 807.011719 319.636719" style="fill: inherit;"/><path d="M 539.007812 227.304688 C 518.84375 228.746094 499.144531 231.863281 480.035156 236.488281 C 474.886719 245.695312 458.816406 275.542969 441.125 319.636719 L 539.007812 319.636719 L 539.007812 227.304688" style="fill: inherit;"/><path d="M 774.390625 446.492188 C 775.601562 452.5 776.71875 458.488281 777.789062 464.46875 L 832.742188 464.46875 C 849.175781 464.46875 862.613281 477.722656 862.613281 493.925781 L 862.613281 552.574219 L 921.394531 552.765625 C 916.320312 484.136719 891.226562 420.902344 851.851562 368.730469 L 755.097656 368.730469 C 762.175781 392.777344 768.8125 418.808594 774.390625 446.492188" style="fill: inherit;"/><path d="M 649.707031 236.355469 C 629.988281 231.617188 609.632812 228.496094 588.792969 227.148438 L 588.792969 319.636719 L 686.171875 319.636719 C 671.257812 280.003906 657.144531 250.835938 649.707031 236.355469" style="fill: inherit;"/><path d="M 725.851562 457.511719 C 719.464844 425.519531 711.503906 395.664062 703.074219 368.730469 L 588.792969 368.730469 L 588.792969 464.46875 L 727.1875 464.46875 C 726.742188 462.148438 726.316406 459.835938 725.851562 457.511719" style="fill: inherit;"/><path d="M 862.613281 601.671875 L 862.613281 646.121094 C 862.613281 662.320312 849.175781 675.578125 832.742188 675.578125 L 786.4375 675.578125 C 786.046875 679.148438 785.628906 682.710938 785.175781 686.261719 C 781.703125 713.628906 776.433594 740.347656 769.511719 766.402344 L 867.230469 766.402344 C 898.175781 718.171875 917.5625 662.054688 921.5625 601.859375 L 862.613281 601.671875" style="fill: inherit;"/><path d="M 717.148438 897.339844 C 759.816406 877.472656 797.890625 849.53125 829.300781 815.5 L 754.148438 815.5 C 743.941406 843.714844 731.601562 871.019531 717.148438 897.339844" style="fill: inherit;"/><path d="M 475.582031 919.65625 C 496.074219 924.894531 517.277344 928.367188 539.007812 929.925781 L 539.007812 815.5 L 419.582031 815.5 C 434.109375 851.84375 452.785156 886.585938 475.582031 919.65625" style="fill: inherit;"/><path d="M 588.792969 815.5 L 588.792969 930.082031 C 609.011719 928.773438 628.773438 925.804688 647.941406 921.300781 L 645.34375 919.570312 C 668 886.554688 686.613281 851.835938 701.222656 815.5 L 588.792969 815.5" style="fill: inherit;"/><path d="M 565.144531 979.96875 C 340.726562 979.96875 158.148438 799.921875 158.148438 578.613281 C 158.148438 357.308594 340.726562 177.261719 565.144531 177.261719 C 789.566406 177.261719 972.144531 357.308594 972.144531 578.613281 C 972.144531 799.921875 789.566406 979.96875 565.144531 979.96875 Z M 566.605469 0 C 253.675781 0 0 258.921875 0 578.320312 C 0 897.71875 253.675781 1156.640625 566.605469 1156.640625 C 879.53125 1156.640625 1133.210938 897.71875 1133.210938 578.320312 C 1133.210938 258.921875 879.53125 0 566.605469 0" style="fill: inherit;"/><path d="M 402.753906 766.402344 L 539.007812 766.402344 L 539.007812 675.578125 L 384.933594 675.578125 C 388.367188 706.777344 394.304688 737.066406 402.753906 766.402344" style="fill: inherit;"/><path d="M 588.792969 766.402344 L 718.210938 766.402344 C 726.789062 737.074219 732.945312 706.789062 736.65625 675.578125 L 588.792969 675.578125 L 588.792969 766.402344" style="fill: inherit;"/><path d="M 603.550781 645.195312 L 603.890625 643.855469 L 618.015625 643.855469 L 644.859375 549.855469 L 671.703125 643.855469 L 685.828125 643.855469 L 686.167969 645.195312 L 686.597656 643.855469 L 702.140625 643.855469 L 727.0625 565.410156 L 751.984375 643.855469 L 767.53125 643.855469 L 767.957031 645.195312 L 768.296875 643.855469 L 782.421875 643.855469 L 823.488281 500.054688 L 784.019531 500.054688 L 765.6875 572.796875 L 742.421875 500.054688 L 727.167969 500.054688 L 727.0625 499.722656 L 726.957031 500.054688 L 711.703125 500.054688 L 688.441406 572.796875 L 670.105469 500.054688 L 619.613281 500.054688 L 601.277344 572.796875 L 578.015625 500.054688 L 562.761719 500.054688 L 562.65625 499.722656 L 562.550781 500.054688 L 547.296875 500.054688 L 524.035156 572.796875 L 505.699219 500.054688 L 455.207031 500.054688 L 436.871094 572.796875 L 413.609375 500.054688 L 398.355469 500.054688 L 398.25 499.722656 L 398.148438 500.054688 L 382.890625 500.054688 L 359.628906 572.796875 L 341.292969 500.054688 L 301.824219 500.054688 L 342.894531 643.855469 L 357.019531 643.855469 L 357.355469 645.195312 L 357.785156 643.855469 L 373.328125 643.855469 L 398.25 565.410156 L 423.171875 643.855469 L 438.71875 643.855469 L 439.144531 645.195312 L 439.484375 643.855469 L 453.609375 643.855469 L 480.453125 549.859375 L 507.300781 643.855469 L 521.421875 643.855469 L 521.761719 645.195312 L 522.191406 643.855469 L 537.734375 643.855469 L 562.65625 565.410156 L 587.578125 643.855469 L 603.121094 643.855469 L 603.550781 645.195312" style="fill: inherit;"/></g></svg>