<svg xmlns="http://www.w3.org/2000/svg" xmlns:xlink="http://www.w3.org/1999/xlink" fill="none" preserveAspectRatio="xMidYMid meet" style="fill: none;" version="1.0" viewBox="65.0 64.0 372.0 372.0" zoomAndPan="magnify" original_string_length="1263"><g id="__id134_sg4nfna4hd"><path clip-rule="evenodd" d="M251 436C353.725 436 437 352.725 437 250C437 147.275 353.725 64 251 64C148.275 64 65 147.275 65 250C65 352.725 148.275 436 251 436ZM230.978 285.198V323.033C230.978 328.515 226.478 333 220.978 333H190.978C185.478 333 180.978 328.515 180.978 323.033V265.264C180.978 258.637 175.606 253.264 168.978 253.264H163.978C159.379 253.264 157.279 247.583 160.679 244.593L244.278 169.542C248.078 166.153 253.878 166.153 257.678 169.542L341.277 244.593C344.777 247.583 342.577 253.264 337.977 253.264H332.977C326.35 253.264 320.977 258.637 320.977 265.264V323.033C320.977 328.515 316.477 333 310.977 333H280.978C275.478 333 270.978 328.515 270.978 323.033V285.198C270.978 278.571 265.605 273.198 258.978 273.198H242.978C236.351 273.198 230.978 278.571 230.978 285.198Z" fill-rule="evenodd" style="fill: rgb(2, 87, 155);"/></g></svg>